# xmcd
#
# Track frame offsets:
#	150
#	12590
#	21732
#	36517
#	48345
#	62385
#	71625
#	79107
#	90257
#	100690
#	111192
#	122037
#	132580
#
# Disc length: 1888
#
# Revision: 0
# Processed by: cddbd v1.5.1PL2 Copyright (c) Steve Scherf et al.
# Submitted via: Broken Cross Disk Manager 3.81.2155
#
DISCID=b0075e0d
DTITLE=Various Artist - Das Große Blasmusikvergnügen CD 1
DYEAR=1900
DGENRE=
TTITLE0=Tiroler Holzhacker Buam
TTITLE1=Solang der alte Peter
TTITLE2=Hinauf in die Ferne
TTITLE3=Max Walzer
TTITLE4=Heut´bist Du mein
TTITLE5=WiesseerLändler
TTITLE6=Schottische Polka
TTITLE7=Trompeten Ländler
TTITLE8=Wien bleibt Wien
TTITLE9=Im tiefen Keller
TTITLE10=Schwarze Augen
TTITLE11=Klarinetten Ländler
TTITLE12=Preussens Gloria
EXTD=
EXTT0=
EXTT1=
EXTT2=
EXTT3=
EXTT4=
EXTT5=
EXTT6=
EXTT7=
EXTT8=
EXTT9=
EXTT10=
EXTT11=
EXTT12=
PLAYORDER=
